<?xml version="1.0" standalone="no"?>
<!DOCTYPE svg PUBLIC "-//W3C//DTD SVG 20010904//EN"
 "http://www.w3.org/TR/2001/REC-SVG-20010904/DTD/svg10.dtd">
<svg version="1.0" xmlns="http://www.w3.org/2000/svg"
 width="215.000000pt" height="215.000000pt" viewBox="0 0 215.000000 215.000000"
 preserveAspectRatio="xMidYMid meet">

<g transform="translate(0.000000,215.000000) scale(0.100000,-0.100000)"
fill="#000000" stroke="none">
<path d="M42 1690 c-46 -19 -47 -39 -8 -321 39 -279 53 -329 114 -407 l29 -37
-40 -203 c-43 -223 -42 -243 10 -263 36 -13 78 5 92 39 5 15 24 105 42 200
l33 172 87 0 88 0 10 -52 c6 -29 22 -114 36 -188 28 -149 42 -173 96 -173 36
0 69 32 69 67 0 11 -14 90 -30 175 -17 85 -30 158 -30 163 0 4 13 8 29 8 20 0
36 9 50 26 26 33 26 54 1 87 l-21 26 -200 3 -201 3 -33 37 c-43 47 -48 66 -89
358 -33 232 -36 246 -61 267 -28 25 -38 27 -73 13z"/>
<path d="M2042 1688 c-30 -15 -37 -45 -72 -303 -36 -263 -42 -286 -85 -333
l-33 -37 -201 -3 -200 -3 -21 -26 c-25 -33 -25 -54 1 -87 14 -17 30 -26 50
-26 16 0 29 -3 29 -7 0 -5 -14 -78 -30 -163 -16 -85 -30 -167 -30 -181 0 -34
32 -62 71 -62 52 0 66 25 94 173 14 74 30 159 36 188 l10 52 88 0 87 0 33
-172 c18 -95 37 -185 42 -200 14 -34 56 -52 92 -39 52 20 53 40 10 263 l-39
203 32 43 c55 72 73 139 110 401 18 135 34 253 34 262 0 44 -64 78 -108 57z"/>
<path d="M562 1377 c-27 -29 -28 -71 -2 -97 19 -19 33 -20 230 -20 l210 0 0
-330 0 -330 -45 0 c-35 0 -52 -6 -70 -25 -28 -27 -30 -42 -14 -78 18 -40 49
-47 210 -47 l151 0 30 30 c24 25 29 36 24 58 -10 41 -42 62 -92 62 l-44 0 0
330 0 330 210 0 c202 0 210 1 230 22 27 29 25 69 -3 96 -23 22 -24 22 -513 22
l-491 0 -21 -23z"/>
</g>
</svg>
